<?xml version="1.0" standalone="no"?>
<!DOCTYPE svg PUBLIC "-//W3C//DTD SVG 20010904//EN"
 "http://www.w3.org/TR/2001/REC-SVG-20010904/DTD/svg10.dtd">
<svg version="1.0" xmlns="http://www.w3.org/2000/svg"
 width="300.000000pt" height="300.000000pt" viewBox="0 0 300.000000 300.000000"
 preserveAspectRatio="xMidYMid meet">
<metadata>
Created by potrace 1.10, written by Peter Selinger 2001-2011
</metadata>
<g transform="translate(0.000000,300.000000) scale(0.100000,-0.100000)"
fill="#000000" stroke="none">
<path d="M1315 2770 c-486 -77 -883 -413 -1033 -875 -47 -145 -57 -215 -57
-400 0 -172 7 -223 47 -360 117 -402 449 -738 850 -859 303 -92 629 -71 917
60 93 43 245 144 327 218 182 165 328 416 387 669 17 75 21 125 21 272 1 188
-5 231 -50 383 -81 270 -271 526 -509 684 -147 98 -277 153 -455 194 -79 18
-361 27 -445 14z m386 -35 c188 -33 387 -114 523 -213 89 -66 221 -195 286
-280 28 -37 77 -121 110 -187 103 -209 136 -369 127 -612 -8 -216 -54 -378
-162 -567 -146 -257 -396 -464 -675 -559 -160 -54 -212 -62 -415 -62 -184 0
-194 1 -310 33 -462 127 -796 473 -910 942 -23 93 -31 338 -15 452 15 108 67
273 117 373 179 354 506 601 893 675 119 23 318 25 431 5z"/>
<path d="M1464 2409 c-5 -8 -7 -113 -4 -239 3 -124 4 -439 3 -702 l-2 -476 92
-7 c51 -4 112 -5 137 -3 l45 3 8 85 c4 47 6 139 5 205 l-3 120 -8 -160 c-4
-88 -11 -176 -15 -195 l-7 -35 -102 0 c-62 0 -106 4 -113 11 -8 8 -12 179 -15
590 -1 319 -3 622 -3 674 -1 52 4 100 9 105 11 11 258 14 444 5 139 -7 200
-28 258 -88 76 -79 107 -181 113 -368 3 -99 0 -143 -12 -185 -24 -82 -57 -149
-97 -197 -21 -24 -37 -51 -37 -60 0 -10 14 -42 31 -72 17 -30 62 -129 100
-219 86 -202 88 -196 -67 -196 l-106 0 -28 34 c-16 19 -58 93 -93 165 -87 175
-117 216 -160 215 -17 -1 -43 -5 -57 -10 -19 -6 -10 -8 33 -6 l58 2 102 -205
102 -205 141 -3 c120 -2 143 0 154 14 11 12 11 22 3 42 -7 15 -30 72 -53 127
-22 55 -65 151 -96 213 l-55 113 33 37 c87 97 119 196 119 368 -2 277 -70 430
-216 484 -55 20 -84 22 -346 27 -239 5 -287 4 -295 -8z"/>
<path d="M2314 2195 c52 -85 86 -241 86 -400 0 -124 -44 -249 -117 -334 -20
-24 -31 -42 -23 -39 25 8 88 100 116 168 65 158 32 510 -58 612 l-29 33 25
-40z"/>
<path d="M1766 2161 c-5 -8 18 -11 83 -10 166 2 195 -33 189 -226 -3 -98 -7
-117 -33 -170 -36 -72 -59 -85 -165 -92 l-77 -6 -10 249 -9 249 -2 -241 c-2
-285 -5 -277 100 -273 121 5 158 31 197 134 17 44 21 79 21 163 0 127 -19 180
-72 208 -40 22 -211 33 -222 15z"/>
<path d="M1860 2071 c8 -5 42 -6 75 -1 l60 7 -75 1 c-47 1 -69 -2 -60 -7z"/>
<path d="M1830 1875 c0 -104 3 -185 7 -182 7 8 5 359 -3 366 -2 2 -4 -80 -4
-184z"/>
<path d="M841 2018 c-172 -72 -291 -248 -331 -488 -32 -192 -31 -257 11 -410
26 -98 103 -231 169 -291 113 -103 343 -119 510 -34 48 25 140 117 140 141 0
20 -121 114 -148 114 -12 0 -45 -15 -72 -34 -28 -19 -64 -37 -80 -41 -47 -10
-106 4 -146 36 -20 16 -41 29 -45 29 -13 0 -55 71 -83 140 -32 79 -41 180 -27
298 26 213 110 325 245 326 45 0 51 -3 97 -52 27 -29 51 -52 55 -52 19 0 134
95 149 124 l19 34 -26 34 c-32 42 -134 117 -190 140 -70 28 -160 23 -247 -14z
m265 -24 c68 -32 164 -121 164 -151 0 -22 -65 -86 -105 -105 -21 -10 -30 -6
-67 24 -24 19 -53 40 -65 46 -50 27 -135 5 -198 -50 -72 -64 -115 -205 -115
-383 0 -151 49 -286 130 -359 87 -78 166 -87 267 -30 75 42 92 41 152 -13 38
-34 42 -41 33 -64 -12 -31 -105 -107 -141 -116 -14 -3 -31 -10 -37 -15 -14
-10 -164 -26 -213 -21 -122 11 -216 78 -296 210 -119 195 -131 434 -39 716 54
164 169 281 329 334 56 18 132 10 201 -23z"/>
<path d="M1323 1832 c26 -28 35 -64 24 -89 -5 -12 -36 -40 -68 -63 l-57 -40
-31 26 c-39 33 -41 17 -2 -20 l30 -29 53 38 c67 48 98 84 98 113 0 27 -35 82
-52 82 -6 0 -4 -8 5 -18z"/>
<path d="M998 1726 c-80 -29 -122 -73 -156 -166 -48 -132 -55 -349 -14 -440
23 -51 29 -47 8 5 -37 88 -27 309 19 432 37 97 79 136 179 168 23 7 32 13 21
14 -11 0 -37 -6 -57 -13z"/>
<path d="M2309 1280 c78 -165 142 -327 135 -344 -8 -21 -38 -26 -147 -26 -98
0 -99 0 -128 31 -33 35 -37 31 -12 -12 l17 -29 132 0 c174 0 185 9 133 112
-10 20 -29 65 -42 100 -32 84 -110 248 -131 273 -9 11 11 -36 43 -105z"/>
<path d="M1834 1308 c-4 -6 -9 -93 -12 -192 -2 -100 -9 -187 -14 -193 -11 -14
-214 -18 -234 -5 -7 4 -14 16 -17 27 -3 14 -5 10 -6 -11 l-1 -32 126 -7 c103
-6 128 -5 140 7 11 11 16 60 21 211 6 188 7 196 27 200 20 4 20 4 -1 6 -12 0
-25 -4 -29 -11z"/>
<path d="M1373 891 c25 -30 26 -34 12 -61 -24 -47 -93 -97 -173 -127 -133 -48
-293 -35 -408 32 -54 32 -57 27 -6 -9 115 -80 332 -86 476 -14 49 24 112 82
133 121 13 26 13 31 -4 49 -10 11 -27 25 -38 30 -15 9 -13 4 8 -21z"/>
</g>
</svg>
